<svg width="263" height="141" viewBox="0 0 263 141" fill="none" xmlns="http://www.w3.org/2000/svg">
<path d="M37.6402 139H33.1402V107.25H21.9902V103.3H48.7402V107.25H37.6402V139ZM73.3078 125.55C73.3078 127.783 73.0078 129.767 72.4078 131.5C71.8411 133.2 71.0078 134.65 69.9078 135.85C68.8411 137.05 67.5245 137.967 65.9578 138.6C64.4245 139.2 62.7078 139.5 60.8078 139.5C59.0411 139.5 57.4078 139.2 55.9078 138.6C54.4078 137.967 53.1078 137.05 52.0078 135.85C50.9078 134.65 50.0411 133.2 49.4078 131.5C48.8078 129.767 48.5078 127.783 48.5078 125.55C48.5078 122.583 49.0078 120.083 50.0078 118.05C51.0078 115.983 52.4411 114.417 54.3078 113.35C56.1745 112.25 58.3911 111.7 60.9578 111.7C63.3911 111.7 65.5245 112.25 67.3578 113.35C69.2245 114.417 70.6745 115.983 71.7078 118.05C72.7745 120.083 73.3078 122.583 73.3078 125.55ZM53.0578 125.55C53.0578 127.65 53.3245 129.483 53.8578 131.05C54.4245 132.583 55.2911 133.767 56.4578 134.6C57.6245 135.433 59.1078 135.85 60.9078 135.85C62.7078 135.85 64.1911 135.433 65.3578 134.6C66.5245 133.767 67.3745 132.583 67.9078 131.05C68.4745 129.483 68.7578 127.65 68.7578 125.55C68.7578 123.417 68.4745 121.6 67.9078 120.1C67.3411 118.6 66.4745 117.45 65.3078 116.65C64.1745 115.817 62.6911 115.4 60.8578 115.4C58.1245 115.4 56.1411 116.3 54.9078 118.1C53.6745 119.9 53.0578 122.383 53.0578 125.55ZM103.581 125.55C103.581 127.783 103.281 129.767 102.681 131.5C102.115 133.2 101.281 134.65 100.181 135.85C99.1146 137.05 97.7979 137.967 96.2313 138.6C94.6979 139.2 92.9813 139.5 91.0813 139.5C89.3146 139.5 87.6813 139.2 86.1813 138.6C84.6813 137.967 83.3813 137.05 82.2812 135.85C81.1813 134.65 80.3146 133.2 79.6813 131.5C79.0813 129.767 78.7813 127.783 78.7813 125.55C78.7813 122.583 79.2813 120.083 80.2813 118.05C81.2813 115.983 82.7146 114.417 84.5813 113.35C86.4479 112.25 88.6646 111.7 91.2313 111.7C93.6646 111.7 95.7979 112.25 97.6313 113.35C99.4979 114.417 100.948 115.983 101.981 118.05C103.048 120.083 103.581 122.583 103.581 125.55ZM83.3313 125.55C83.3313 127.65 83.5979 129.483 84.1313 131.05C84.6979 132.583 85.5646 133.767 86.7313 134.6C87.8979 135.433 89.3813 135.85 91.1813 135.85C92.9813 135.85 94.4646 135.433 95.6313 134.6C96.7979 133.767 97.6479 132.583 98.1813 131.05C98.7479 129.483 99.0313 127.65 99.0313 125.55C99.0313 123.417 98.7479 121.6 98.1813 120.1C97.6146 118.6 96.7479 117.45 95.5813 116.65C94.4479 115.817 92.9646 115.4 91.1313 115.4C88.3979 115.4 86.4146 116.3 85.1813 118.1C83.9479 119.9 83.3313 122.383 83.3313 125.55ZM114.905 120.85C114.905 121.383 114.871 122.083 114.805 122.95C114.771 123.817 114.738 124.567 114.705 125.2H114.905C115.105 124.933 115.405 124.55 115.805 124.05C116.205 123.55 116.605 123.05 117.005 122.55C117.438 122.017 117.805 121.583 118.105 121.25L126.655 112.2H131.805L120.955 123.65L132.555 139H127.255L117.955 126.5L114.905 129.15V139H110.555V101H114.905V120.85ZM166.254 139H161.754V107.25H150.604V103.3H177.354V107.25H166.254V139ZM188.283 111.75C191.549 111.75 193.966 112.467 195.533 113.9C197.099 115.333 197.883 117.617 197.883 120.75V139H194.683L193.833 135.2H193.633C192.866 136.167 192.066 136.983 191.233 137.65C190.433 138.283 189.499 138.75 188.433 139.05C187.399 139.35 186.133 139.5 184.633 139.5C183.033 139.5 181.583 139.217 180.283 138.65C179.016 138.083 178.016 137.217 177.283 136.05C176.549 134.85 176.183 133.35 176.183 131.55C176.183 128.883 177.233 126.833 179.333 125.4C181.433 123.933 184.666 123.133 189.033 123L193.583 122.85V121.25C193.583 119.017 193.099 117.467 192.133 116.6C191.166 115.733 189.799 115.3 188.033 115.3C186.633 115.3 185.299 115.517 184.033 115.95C182.766 116.35 181.583 116.817 180.483 117.35L179.133 114.05C180.299 113.417 181.683 112.883 183.283 112.45C184.883 111.983 186.549 111.75 188.283 111.75ZM189.583 126.05C186.249 126.183 183.933 126.717 182.633 127.65C181.366 128.583 180.733 129.9 180.733 131.6C180.733 133.1 181.183 134.2 182.083 134.9C183.016 135.6 184.199 135.95 185.633 135.95C187.899 135.95 189.783 135.333 191.283 134.1C192.783 132.833 193.533 130.9 193.533 128.3V125.9L189.583 126.05ZM210.56 139H206.16V101H210.56V139ZM223.401 120.85C223.401 121.383 223.367 122.083 223.301 122.95C223.267 123.817 223.234 124.567 223.201 125.2H223.401C223.601 124.933 223.901 124.55 224.301 124.05C224.701 123.55 225.101 123.05 225.501 122.55C225.934 122.017 226.301 121.583 226.601 121.25L235.151 112.2H240.301L229.451 123.65L241.051 139H235.751L226.451 126.5L223.401 129.15V139H219.051V101H223.401V120.85Z" fill="#484848"/>
<path d="M124.303 46.5654C122.88 47.2909 121.746 47.8824 119.524 49.1994C113.72 52.6391 116.676 49.3511 116.676 47.7484C117.388 46.2974 119.946 45.7059 118.522 44.2549C120.488 44.2549 123.592 45.1144 124.303 46.5654Z" fill="white"/>
<path d="M137.407 46.126C139.584 46.9413 141.318 47.6061 144.715 49.0861C153.589 52.9518 149.069 49.2567 149.069 47.4555C147.981 45.8248 144.07 45.1601 146.247 43.5294C143.241 43.5294 138.495 44.4953 137.407 46.126Z" fill="white"/>
<path d="M168 59.5C168 70.8218 156.136 80 141.5 80C126.864 80 115 70.8218 115 59.5C115 48.1782 126.864 39 141.5 39C156.136 39 168 48.1782 168 59.5Z" fill="white"/>
<path d="M107.218 95.7549C106.287 95.7549 105.58 95.5311 105.097 95.0835C104.613 94.6538 104.362 94.1077 104.345 93.4453C104.327 92.8008 104.55 92.1652 105.016 91.5386C105.428 91.0194 105.92 90.348 106.493 89.5244C107.066 88.7188 107.639 87.8683 108.212 86.9731C108.785 86.078 109.277 85.2365 109.689 84.4487C106.86 83.1418 104.38 81.4409 102.25 79.3462C100.137 77.2515 98.4901 74.8882 97.3085 72.2563C96.1447 69.6245 95.5628 66.8405 95.5628 63.9043C95.5628 60.5205 96.3417 57.3516 97.8993 54.3975C99.4748 51.4434 101.65 48.8563 104.425 46.6362C107.218 44.3983 110.459 42.6527 114.147 41.3994C117.835 40.1283 121.792 39.4927 126.017 39.4927C130.242 39.4927 134.199 40.1283 137.887 41.3994C141.575 42.6527 144.807 44.3983 147.582 46.6362C150.375 48.8563 152.55 51.4434 154.108 54.3975C155.683 57.3516 156.471 60.5205 156.471 63.9043C156.471 66.7152 155.934 69.3739 154.86 71.8804C153.803 74.369 152.291 76.6338 150.321 78.6748C148.37 80.7158 146.033 82.4704 143.312 83.9385C140.608 85.3887 137.601 86.4897 134.288 87.2417C130.976 87.9937 127.449 88.3159 123.707 88.2085C121.899 89.5155 119.948 90.7419 117.853 91.8877C115.758 93.0335 113.762 93.9645 111.864 94.6807C109.966 95.3968 108.418 95.7549 107.218 95.7549ZM110.038 91.2969C110.844 90.9567 111.864 90.4375 113.099 89.7393C114.335 89.041 115.615 88.2622 116.94 87.4028C118.265 86.5614 119.473 85.7467 120.565 84.959C121.067 84.5651 121.55 84.2786 122.015 84.0996C122.499 83.9027 123.018 83.8042 123.573 83.8042C124.11 83.8221 124.585 83.84 124.996 83.8579C125.408 83.8579 125.748 83.8579 126.017 83.8579C129.633 83.8579 133.017 83.3387 136.168 82.3003C139.319 81.2619 142.077 79.8296 144.44 78.0034C146.821 76.1772 148.683 74.0557 150.026 71.6387C151.369 69.2217 152.04 66.6436 152.04 63.9043C152.04 61.1471 151.369 58.569 150.026 56.1699C148.683 53.7529 146.821 51.6313 144.44 49.8052C142.077 47.9611 139.319 46.5199 136.168 45.4814C133.017 44.443 129.633 43.9238 126.017 43.9238C122.4 43.9238 119.017 44.443 115.866 45.4814C112.715 46.5199 109.948 47.9611 107.567 49.8052C105.204 51.6313 103.351 53.7529 102.008 56.1699C100.683 58.569 100.021 61.1471 100.021 63.9043C100.021 66.2855 100.54 68.5503 101.578 70.6987C102.617 72.8472 104.121 74.8166 106.09 76.6069C108.077 78.3794 110.477 79.9191 113.287 81.2261C114.147 81.6379 114.648 82.1392 114.791 82.73C114.935 83.3208 114.818 83.9653 114.442 84.6636C113.977 85.5229 113.287 86.5614 112.374 87.7788C111.461 89.0142 110.629 90.0973 109.877 91.0283C109.805 91.1178 109.787 91.1895 109.823 91.2432C109.859 91.3148 109.931 91.3327 110.038 91.2969Z" fill="#EBAA4E"/>
<path d="M160.545 91.4019C161.476 91.4019 162.183 91.1782 162.666 90.7306C163.15 90.3009 163.4 89.7548 163.418 89.0924C163.436 88.4478 163.212 87.8123 162.747 87.1856C162.335 86.6664 161.843 85.995 161.27 85.1715C160.697 84.3658 160.124 83.5154 159.551 82.6202C158.978 81.725 158.486 80.8836 158.074 80.0958C160.903 78.7888 163.382 77.088 165.513 74.9933C167.625 72.8985 169.273 70.5352 170.454 67.9034C171.618 65.2716 172.2 62.4876 172.2 59.5514C172.2 56.1676 171.421 52.9986 169.863 50.0445C168.288 47.0904 166.113 44.5033 163.338 42.2833C160.545 40.0453 157.304 38.2997 153.616 37.0465C149.928 35.7753 145.971 35.1397 141.746 35.1397C137.52 35.1397 133.564 35.7753 129.876 37.0465C126.187 38.2997 122.956 40.0453 120.181 42.2833C117.388 44.5033 115.213 47.0904 113.655 50.0445C112.079 52.9986 111.292 56.1676 111.292 59.5514C111.292 62.3622 111.829 65.0209 112.903 67.5274C113.959 70.016 115.472 72.2809 117.442 74.3219C119.393 76.3629 121.729 78.1174 124.451 79.5855C127.154 81.0357 130.162 82.1368 133.474 82.8888C136.786 83.6407 140.313 83.963 144.055 83.8556C145.864 85.1625 147.815 86.3889 149.91 87.5348C152.005 88.6806 154.001 89.6116 155.899 90.3277C157.796 91.0439 159.345 91.4019 160.545 91.4019ZM157.725 86.9439C156.919 86.6038 155.899 86.0846 154.663 85.3863C153.428 84.6881 152.148 83.9093 150.823 83.0499C149.498 82.2084 148.29 81.3938 147.197 80.606C146.696 80.2122 146.213 79.9257 145.747 79.7467C145.264 79.5497 144.745 79.4513 144.19 79.4513C143.652 79.4692 143.178 79.4871 142.766 79.505C142.354 79.505 142.014 79.505 141.746 79.505C138.129 79.505 134.745 78.9858 131.594 77.9474C128.443 76.9089 125.686 75.4767 123.323 73.6505C120.942 71.8243 119.08 69.7027 117.737 67.2857C116.394 64.8687 115.723 62.2906 115.723 59.5514C115.723 56.7942 116.394 54.2161 117.737 51.817C119.08 49.4 120.942 47.2784 123.323 45.4522C125.686 43.6082 128.443 42.1669 131.594 41.1285C134.745 40.0901 138.129 39.5709 141.746 39.5709C145.362 39.5709 148.746 40.0901 151.897 41.1285C155.048 42.1669 157.814 43.6082 160.195 45.4522C162.559 47.2784 164.412 49.4 165.755 51.817C167.079 54.2161 167.742 56.7942 167.742 59.5514C167.742 61.9325 167.223 64.1974 166.184 66.3458C165.146 68.4942 163.642 70.4636 161.673 72.254C159.685 74.0265 157.286 75.5662 154.475 76.8731C153.616 77.2849 153.115 77.7862 152.971 78.377C152.828 78.9679 152.944 79.6124 153.32 80.3106C153.786 81.17 154.475 82.2084 155.388 83.4259C156.301 84.6612 157.134 85.7444 157.886 86.6754C157.958 86.7649 157.975 86.8365 157.94 86.8902C157.904 86.9618 157.832 86.9797 157.725 86.9439Z" fill="#EBAA4E"/>
<ellipse cx="126" cy="64.1471" rx="26" ry="20.5" fill="white"/>
<circle cx="110" cy="63.6471" r="4.75" fill="white" stroke="#EBAA4E" stroke-width="2.5"/>
<circle cx="127" cy="63.6471" r="4.75" fill="white" stroke="#EBAA4E" stroke-width="2.5"/>
<path d="M147.75 63.6471C147.75 66.2704 145.623 68.3971 143 68.3971C140.377 68.3971 138.25 66.2704 138.25 63.6471C138.25 61.0237 140.377 58.8971 143 58.8971C145.623 58.8971 147.75 61.0237 147.75 63.6471Z" fill="white" stroke="#EBAA4E" stroke-width="2.5"/>
</svg>
